<?xml version="1.0" encoding="UTF-8"?>
<svg id="_Слой_1" data-name="Слой 1" xmlns="http://www.w3.org/2000/svg" xmlns:xlink="http://www.w3.org/1999/xlink" viewBox="0 0 128 128">
  <defs>
    <style>
      .cls-1 {
        fill: url(#_Безымянный_градиент_188);
      }

      .cls-2 {
        fill: url(#_Безымянный_градиент_188-3);
      }

      .cls-3 {
        fill: url(#_Безымянный_градиент_188-2);
      }
    </style>
    <linearGradient id="_Безымянный_градиент_188" data-name="Безымянный градиент 188" x1="76.75" y1="85.81" x2="51.72" y2="42.45" gradientTransform="translate(128.09 -.86) rotate(90)" gradientUnits="userSpaceOnUse">
      <stop offset="0" stop-color="#39b5ff"/>
      <stop offset=".18" stop-color="#36b0ff"/>
      <stop offset=".38" stop-color="#30a4ff"/>
      <stop offset=".58" stop-color="#268eff"/>
      <stop offset=".78" stop-color="#1871ff"/>
      <stop offset=".98" stop-color="#054bff"/>
      <stop offset="1" stop-color="#0448ff"/>
      <stop offset="1" stop-color="#004121"/>
      <stop offset="1" stop-color="#004000"/>
    </linearGradient>
    <linearGradient id="_Безымянный_градиент_188-2" data-name="Безымянный градиент 188" x1="50.68" y1="85.81" x2="25.65" y2="42.45" xlink:href="#_Безымянный_градиент_188"/>
    <linearGradient id="_Безымянный_градиент_188-3" data-name="Безымянный градиент 188" x1="103.47" y1="85.49" x2="78.44" y2="42.13" xlink:href="#_Безымянный_градиент_188"/>
  </defs>
  <path class="cls-1" d="m37.72,67.05v-14.69c0-1.83,1.48-3.1,3.31-2.85l45.85,6.42c1.83.26,3.31,1.95,3.31,3.77v14.69c0,1.83-1.48,3.1-3.31,2.85l-45.85-6.42c-1.83-.26-3.31-1.95-3.31-3.77Z"/>
  <path class="cls-3" d="m37.72,40.98v-14.69c0-1.83,1.48-3.1,3.31-2.85l45.85,6.42c1.83.26,3.31,1.95,3.31,3.77v14.69c0,1.83-1.48,3.1-3.31,2.85l-45.85-6.42c-1.83-.26-3.31-1.95-3.31-3.77Z"/>
  <path class="cls-2" d="m38.05,93.77v-14.69c0-1.83,1.48-3.1,3.31-2.85l45.85,6.42c1.83.26,3.31,1.95,3.31,3.77v14.69c0,1.83-1.48,3.1-3.31,2.85l-45.85-6.42c-1.83-.26-3.31-1.95-3.31-3.77Z"/>
</svg>